<svg xmlns="http://www.w3.org/2000/svg" x="0px" y="0px"
width="50" height="50"
viewBox="0 0 192 192"
style=" fill:#000000;"><g fill="none" fill-rule="nonzero" stroke="none" stroke-width="1" stroke-linecap="butt" stroke-linejoin="miter" stroke-miterlimit="10" stroke-dasharray="" stroke-dashoffset="0" font-family="none" font-weight="none" font-size="none" text-anchor="none" style="mix-blend-mode: normal"><path d="M0,192v-192h192v192z" fill="none"></path><g fill="#1e2d40"><g id="surface1"><path d="M111.36,17.4c-20.025,0 -36.975,11.985 -45.12,28.92c-4.335,-2.985 -9.36,-5.16 -15,-5.16c-14.31,0 -25.725,11.325 -26.52,25.44c-14.31,5.16 -24.72,18.51 -24.72,34.56c0,20.46 16.62,37.08 37.08,37.08h32.04c1.38,0.015 2.67,-0.705 3.375,-1.905c0.69,-1.2 0.69,-2.67 0,-3.87c-0.705,-1.2 -1.995,-1.92 -3.375,-1.905h-32.04c-16.32,0 -29.4,-13.095 -29.4,-29.4c0,-13.575 9.15,-25.005 21.6,-28.44c1.695,-0.495 2.835,-2.085 2.76,-3.84c-0.015,-0.54 0,-0.81 0,-0.84c0,-10.665 8.535,-19.2 19.2,-19.2c5.34,0 10.2,2.145 13.68,5.64c0.915,0.885 2.22,1.275 3.465,1.005c1.26,-0.27 2.295,-1.14 2.775,-2.325c6.045,-16.32 21.735,-28.08 40.2,-28.08c23.7,0 42.84,19.155 42.84,42.84c0,1.755 -0.135,3.48 -0.36,5.28c-0.135,1.08 0.195,2.16 0.9,2.985c0.705,0.825 1.74,1.305 2.82,1.335h0.24c14.685,0 26.52,11.835 26.52,26.52c0,14.685 -11.835,26.52 -26.52,26.52h-34.92c-1.38,-0.015 -2.67,0.705 -3.375,1.905c-0.69,1.2 -0.69,2.67 0,3.87c0.705,1.2 1.995,1.92 3.375,1.905h34.92c18.84,0 34.2,-15.36 34.2,-34.2c0,-17.475 -13.41,-31.365 -30.36,-33.36c0.06,-0.93 0.24,-1.8 0.24,-2.76c0,-27.84 -22.68,-50.52 -50.52,-50.52zM96,82.92l-2.76,2.64l-19.2,19.2c-1.53,1.53 -1.53,3.99 0,5.52c1.53,1.53 3.99,1.53 5.52,0l12.6,-12.6v67.44c-0.015,1.38 0.705,2.67 1.905,3.375c1.2,0.69 2.67,0.69 3.87,0c1.2,-0.705 1.92,-1.995 1.905,-3.375v-67.44l12.6,12.6c1.53,1.53 3.99,1.53 5.52,0c1.53,-1.53 1.53,-3.99 0,-5.52l-19.2,-19.2z"></path></g></g></g></svg>